<?xml version="1.0" standalone="no"?>
<!DOCTYPE svg PUBLIC "-//W3C//DTD SVG 20010904//EN"
 "http://www.w3.org/TR/2001/REC-SVG-20010904/DTD/svg10.dtd">
<svg version="1.0" xmlns="http://www.w3.org/2000/svg"
 width="92.000000pt" height="42.000000pt" viewBox="0 0 92.000000 42.000000"
 preserveAspectRatio="xMidYMid meet">
<metadata>
Created by potrace 1.16, written by Peter Selinger 2001-2019
</metadata>
<g transform="translate(0.000000,42.000000) scale(0.100000,-0.100000)"
fill="#000000" stroke="none">
<path d="M92 408 c-37 -37 29 -88 113 -88 54 0 125 33 125 58 0 30 -27 48 -51
34 -23 -15 -59 -16 -59 -2 0 6 -11 10 -25 10 -15 0 -24 -5 -22 -12 1 -8 -8
-13 -23 -13 -15 0 -24 5 -22 13 3 15 -20 16 -36 0z"/>
<path d="M360 401 c1 -40 57 -69 155 -78 96 -9 195 31 195 79 0 17 -10 18
-175 16 -152 -1 -175 -4 -175 -17z"/>
<path d="M132 238 l3 -73 88 -3 c66 -2 87 -6 87 -17 0 -7 11 -15 25 -17 21 -3
14 -10 -56 -63 -89 -67 -89 -86 1 -31 32 20 61 36 64 36 3 0 8 -16 12 -35 5
-28 11 -35 30 -35 18 0 24 5 24 23 1 54 17 55 102 4 26 -16 53 -27 59 -25 11
4 -69 66 -132 103 l-34 19 33 4 c20 2 32 9 32 18 0 11 18 14 84 14 l83 0 6 29
c4 17 14 30 26 34 28 7 29 47 2 47 -11 0 -23 9 -26 20 -6 19 -15 20 -261 20
l-255 0 3 -72z"/>
<path d="M790 289 c-25 -5 -55 -12 -67 -15 -16 -3 -23 -12 -23 -29 0 -14 1
-25 3 -25 52 -9 146 -29 160 -35 15 -6 17 0 17 54 0 69 1 68 -90 50z"/>
</g>
</svg>
